<svg xmlns="http://www.w3.org/2000/svg" viewBox="0 0 100 100">
  <defs>
    <linearGradient id="bg" x1="0%" y1="0%" x2="100%" y2="100%">
      <stop offset="0%" style="stop-color:#2563eb"/>
      <stop offset="100%" style="stop-color:#1d4ed8"/>
    </linearGradient>
  </defs>
  <!-- 圆角背景 -->
  <rect width="100" height="100" rx="22" fill="url(#bg)"/>
  <!-- 文档图标 -->
  <g transform="translate(28,18)" fill="none" stroke="#ffffff" stroke-width="4.5" stroke-linecap="round" stroke-linejoin="round">
    <path d="M4 2 H26 L36 12 V54 A3 3 0 0 1 33 57 H4 A3 3 0 0 1 1 54 V5 A3 3 0 0 1 4 2 Z" fill="#ffffff" fill-opacity="0.08"/>
    <!-- 折角 -->
    <path d="M26 2 V12 H36" fill="#bfdbfe" fill-opacity="0.4"/>
    <!-- 文字线 -->
    <line x1="10" y1="24" x2="30" y2="24" stroke="#ffffff" stroke-opacity="0.9"/>
    <line x1="10" y1="32" x2="26" y2="32" stroke="#ffffff" stroke-opacity="0.7"/>
    <line x1="10" y1="40" x2="22" y2="40" stroke="#ffffff" stroke-opacity="0.5"/>
  </g>
  <!-- 放大镜 -->
  <g transform="translate(54,56)">
    <circle cx="0" cy="0" r="13" fill="none" stroke="#fbbf24" stroke-width="4.5"/>
    <line x1="10" y1="10" x2="20" y2="20" stroke="#fbbf24" stroke-width="4.5" stroke-linecap="round"/>
  </g>
</svg>
